<svg width="250" height="150" viewBox="0 0 250 150" fill="none" xmlns="http://www.w3.org/2000/svg">
<path d="M112.566 93.5332C104.669 93.5332 99.5402 88.2773 99.5402 79.543C99.5402 70.8594 104.72 65.5273 112.566 65.5273C120.411 65.5273 125.591 70.834 125.591 79.543C125.591 88.2773 120.462 93.5332 112.566 93.5332ZM112.566 88.5312C116.577 88.5312 119.167 85.2812 119.167 79.543C119.167 73.8301 116.577 70.5547 112.566 70.5547C108.579 70.5547 105.964 73.8301 105.964 79.543C105.964 85.2812 108.554 88.5312 112.566 88.5312ZM132.485 93.5078C130.632 93.5078 129.311 92.3145 129.311 90.1816V59.1797C129.311 57.0469 130.632 55.8535 132.485 55.8535C134.339 55.8535 135.634 57.0469 135.634 59.1797V90.1816C135.634 92.3145 134.339 93.5078 132.485 93.5078ZM143.797 62.3027C141.842 62.3027 140.293 60.7793 140.293 58.875C140.293 56.9453 141.842 55.4473 143.797 55.4473C145.778 55.4473 147.326 56.9453 147.326 58.875C147.326 60.7793 145.778 62.3027 143.797 62.3027ZM143.797 93.5078C141.867 93.5078 140.649 92.2383 140.649 90.1816V68.8789C140.649 66.8477 141.867 65.5527 143.797 65.5527C145.727 65.5527 146.971 66.8477 146.971 68.9043V90.1816C146.971 92.2383 145.727 93.5078 143.797 93.5078ZM162.523 93.5078C160.187 93.5078 158.918 92.5684 158.08 90.2832L150.513 70.2246C150.31 69.666 150.158 69.0312 150.158 68.4219C150.158 66.6953 151.504 65.5527 153.332 65.5527C154.83 65.5527 155.845 66.3652 156.328 68.0664L162.472 87.1348H162.599L168.744 68.0156C169.226 66.3398 170.242 65.5527 171.715 65.5527C173.492 65.5527 174.787 66.7715 174.787 68.3965C174.787 68.9805 174.66 69.5898 174.457 70.123L166.89 90.2832C166.103 92.4922 164.758 93.5078 162.523 93.5078ZM189.044 93.5332C180.818 93.5332 175.968 88.3789 175.968 79.6445C175.968 71.0625 180.919 65.5273 188.689 65.5273C196.052 65.5273 201.079 70.7578 201.079 78.0703C201.079 79.9492 200.013 81.0664 198.134 81.0664H182.265V81.2695C182.265 85.7637 184.88 88.6582 188.993 88.6582C191.837 88.6582 193.691 87.668 195.722 85.0781C196.382 84.3418 196.966 84.0625 197.855 84.0625C199.277 84.0625 200.394 84.9766 200.394 86.5C200.394 86.9824 200.241 87.541 199.962 88.0996C198.185 91.5273 194.173 93.5332 189.044 93.5332ZM182.316 76.9023H194.884C194.757 72.9922 192.269 70.4277 188.714 70.4277C185.159 70.4277 182.57 73.043 182.316 76.9023ZM207.796 93.5078C205.891 93.5078 204.647 92.2637 204.647 90.1816V68.752C204.647 66.7715 205.866 65.5527 207.669 65.5527C209.421 65.5527 210.665 66.7715 210.665 68.752V70.8086H210.792C211.528 67.6602 213.864 65.6289 216.555 65.6289C217.546 65.6289 218.307 65.8828 218.79 66.3145C219.374 66.7969 219.679 67.5586 219.679 68.5996C219.679 69.5898 219.374 70.3262 218.739 70.834C218.13 71.3672 217.19 71.6465 215.946 71.6719C212.341 71.6973 210.97 73.957 210.97 77.2324V90.1816C210.97 92.2637 209.7 93.5078 207.796 93.5078Z" fill="#2E3A47"/>
<g filter="url(#filter0_i_5_89)">
<path d="M77.5 39C82.7467 39 87 43.2533 87 48.5C87 53.7467 82.7467 58 77.5 58C76.6339 58 75.7953 57.8822 74.998 57.665C74.6889 58.1362 74.3903 58.5829 74.0742 59.0439C71.8536 62.2191 69.6353 65.3102 66.5107 68.2266C64.1181 70.4033 61.3667 72.4936 58.3887 74.0703C56.8186 74.9131 55.2227 75.63 53.6309 76.2783C49.6291 77.8284 45.8485 78.5043 42 79.1113V92.8271C42.9337 92.7552 44.057 92.6622 45.2754 92.5342C48.6699 92.1776 52.5644 91.6068 55.2178 90.7656C57.6525 89.9936 60.6492 88.5438 63.2734 87.1357C63.2595 86.9256 63.25 86.7137 63.25 86.5C63.25 81.2534 67.5034 77.0001 72.75 77C77.9967 77 82.25 81.2533 82.25 86.5C82.25 91.7467 77.9967 96 72.75 96C69.8796 95.9999 67.3083 94.7253 65.5664 92.7129C62.9364 94.103 59.7977 95.6072 57.0312 96.4844C53.754 97.5234 49.336 98.1402 45.9014 98.501C44.4114 98.6575 43.0605 98.7688 42 98.8467V110.8C42 110.91 41.911 111 41.8008 111H36.2002C36.0898 111 36 110.91 36 110.8V57.3311C32.4862 55.9371 30 52.5101 30 48.5C30 43.2534 34.2535 39.0002 39.5 39C44.7467 39 49 43.2533 49 48.5C49 52.8814 46.0337 56.5675 42 57.665V73.0391C45.2905 72.5024 48.6051 71.8082 51.3691 70.7217C52.8248 70.129 54.2239 69.4956 55.5508 68.7832C58.0576 67.4506 60.2928 65.7652 62.4893 63.7734C64.8463 61.5953 67.0866 58.5936 69.1279 55.6475C69.4271 55.2116 69.7285 54.7596 70.0068 54.335C68.7509 52.7244 68 50.7006 68 48.5C68 43.2534 72.2534 39.0001 77.5 39Z" fill="url(#paint0_linear_5_89)"/>
</g>
<defs>
<filter id="filter0_i_5_89" x="30" y="39" width="57" height="72" filterUnits="userSpaceOnUse" color-interpolation-filters="sRGB">
<feFlood flood-opacity="0" result="BackgroundImageFix"/>
<feBlend mode="normal" in="SourceGraphic" in2="BackgroundImageFix" result="shape"/>
<feColorMatrix in="SourceAlpha" type="matrix" values="0 0 0 0 0 0 0 0 0 0 0 0 0 0 0 0 0 0 127 0" result="hardAlpha"/>
<feOffset/>
<feGaussianBlur stdDeviation="1"/>
<feComposite in2="hardAlpha" operator="arithmetic" k2="-1" k3="1"/>
<feColorMatrix type="matrix" values="0 0 0 0 0 0 0 0 0 0 0 0 0 0 0 0 0 0 0.18 0"/>
<feBlend mode="normal" in2="shape" result="effect1_innerShadow_5_89"/>
</filter>
<linearGradient id="paint0_linear_5_89" x1="58.5" y1="39" x2="58.5" y2="111" gradientUnits="userSpaceOnUse">
<stop stop-color="#2B2E4A"/>
<stop offset="1" stop-color="#00D1FF"/>
</linearGradient>
</defs>
</svg>
