<svg width="32" height="32" viewBox="0 0 32 32" fill="none" xmlns="http://www.w3.org/2000/svg">
<g filter="url(#filter0_i_5_111)">
<path d="M21.833 4C23.5819 4 25 5.41809 25 7.16699C24.9998 8.91574 23.5818 10.333 21.833 10.333C21.5439 10.333 21.2642 10.2933 20.998 10.2207C20.895 10.3778 20.7968 10.5279 20.6914 10.6816C19.9512 11.74 19.2114 12.7701 18.1699 13.7422C17.3724 14.4677 16.4555 15.1649 15.4629 15.6904C14.9396 15.9713 14.4075 16.2107 13.877 16.4268C12.5433 16.9434 11.2826 17.1678 10 17.3701V21.9424C10.3112 21.9184 10.6859 21.8874 11.0918 21.8447C12.2233 21.7259 13.5219 21.5353 14.4062 21.2549C15.218 20.9974 16.216 20.5114 17.0908 20.042C17.0863 19.973 17.083 19.9031 17.083 19.833C17.0832 18.0843 18.5012 16.667 20.25 16.667C21.9988 16.667 23.4168 18.0843 23.417 19.833C23.417 21.5819 21.9989 23 20.25 23C19.2924 23 18.4361 22.5731 17.8555 21.9014C16.9787 22.3649 15.9332 22.8686 15.0107 23.1611C13.9184 23.5075 12.4456 23.7127 11.3008 23.833C10.8041 23.8852 10.3535 23.9221 10 23.9482V27.7998C10 27.9103 9.91026 28 9.7998 28H8.2002C8.08974 28 8 27.9103 8 27.7998V10.1104C6.82876 9.64576 6.00013 8.5036 6 7.16699C6 5.41809 7.41809 4 9.16699 4C10.9157 4.00018 12.333 5.4182 12.333 7.16699C12.3329 8.62718 11.3443 9.85476 10 10.2207V15.3428C11.0966 15.1639 12.2019 14.9363 13.123 14.5742C13.6082 14.3767 14.0744 14.1652 14.5166 13.9277C15.3522 13.4835 16.0979 12.9217 16.8301 12.2578C17.6156 11.5318 18.3626 10.5316 19.043 9.5498C19.1431 9.40395 19.2429 9.25149 19.3359 9.10938C18.9179 8.5728 18.6671 7.89983 18.667 7.16699C18.667 5.4182 20.0843 4.00018 21.833 4Z" fill="url(#paint0_linear_5_111)"/>
</g>
<defs>
<filter id="filter0_i_5_111" x="6" y="4" width="19" height="24" filterUnits="userSpaceOnUse" color-interpolation-filters="sRGB">
<feFlood flood-opacity="0" result="BackgroundImageFix"/>
<feBlend mode="normal" in="SourceGraphic" in2="BackgroundImageFix" result="shape"/>
<feColorMatrix in="SourceAlpha" type="matrix" values="0 0 0 0 0 0 0 0 0 0 0 0 0 0 0 0 0 0 127 0" result="hardAlpha"/>
<feOffset/>
<feGaussianBlur stdDeviation="1"/>
<feComposite in2="hardAlpha" operator="arithmetic" k2="-1" k3="1"/>
<feColorMatrix type="matrix" values="0 0 0 0 0 0 0 0 0 0 0 0 0 0 0 0 0 0 0.18 0"/>
<feBlend mode="normal" in2="shape" result="effect1_innerShadow_5_111"/>
</filter>
<linearGradient id="paint0_linear_5_111" x1="15.5" y1="4" x2="15.5" y2="27.75" gradientUnits="userSpaceOnUse">
<stop stop-color="#2B2E4A"/>
<stop offset="1" stop-color="#00D1FF"/>
</linearGradient>
</defs>
</svg>
